# xmcd
#
# Track frame offsets: 
#        150
#        15490
#        30785
#        42112
#        55012
#        68742
#        88020
#        105427
#        120712
#        137162
#        152685
#
# Disc length: 2249 seconds
#
# Revision: 3
# Processed by: cddbd v1.4PL0 Copyright (c) Steve Scherf et al.
# Submitted via: ExactAudioCopy v0.90b3
#
DISCID=7b08c70b
DTITLE=Tracy Byrd - Keepers: Greatest Hits
DYEAR=2000
DGENRE=Country
TTITLE0=When Mama Ain't Happy
TTITLE1=Someone To Give My Love To
TTITLE2=Holdin' Heaven
TTITLE3=Lifestyles of the Not So Rich and Famous
TTITLE4=Watermelon Crawl
TTITLE5=The Keeper of the Stars (radio version)
TTITLE6=Love Lessons
TTITLE7=Heaven in My Woman's Eyes
TTITLE8=Big Love
TTITLE9=Don't Take Her She's All I Got
TTITLE10=I'm From the Country
EXTD=\nYEAR: 2000  ID3G:   2
EXTT0=
EXTT1=
EXTT2=
EXTT3=
EXTT4=
EXTT5=
EXTT6=
EXTT7=
EXTT8=
EXTT9=
EXTT10=
PLAYORDER=
